<?xml version="1.0" encoding="UTF-8"?>
<svg width="28px" height="23px" viewBox="0 0 28 23" version="1.1" xmlns="http://www.w3.org/2000/svg" xmlns:xlink="http://www.w3.org/1999/xlink">
    <!-- Generator: Sketch 56.3 (81716) - https://sketch.com -->
    <title>icon-academic-self-efficacy-2</title>
    <desc>Created with Sketch.</desc>
    <g id="Icons---Product" stroke="none" stroke-width="1" fill="none" fill-rule="evenodd">
        <g id="Capacities-&amp;-Experiences" transform="translate(-10.000000, -55.000000)">
            <g id="icon-academic-self-efficacy-2" transform="translate(8.000000, 50.000000)">
                <rect id="bg" x="0" y="0" width="32" height="32"></rect>
                <g id="shape" transform="translate(0.000000, 4.000000)">
                    <path d="M24.1110593,20.3605705 C21.6612679,22.7868568 18.9575815,24 16,24 C13.0424194,24 10.3387337,22.7868576 7.88894284,20.3605727 C7.32005552,19.7971614 7,19.0297163 7,18.2290509 L7,14.9201657 C7,14.6440233 7.22385763,14.4201657 7.5,14.4201657 C7.58227212,14.4201657 7.66327304,14.4404672 7.73581988,14.47927 L8.73581988,15.0141355 C8.89845929,15.1011257 9,15.2705891 9,15.4550312 L9,17.7378673 C9.00000893,18.2970533 9.2341107,18.8307022 9.64554302,19.2094007 C11.6667516,21.0698002 13.784904,22 16,22 C18.2151018,22 20.3332594,21.0697954 22.3544727,19.2093862 C22.7658989,18.830682 23,18.2970336 23,17.7378481 L23,15.4550312 C23,15.2705891 23.1015407,15.1011257 23.2641801,15.0141355 L24.2641801,14.47927 C24.5076801,14.3490303 24.8106559,14.4408459 24.9408957,14.6843458 C24.9796985,14.7568926 25,14.8378936 25,14.9201657 L25,18.2290599 C24.9999848,19.0297177 24.6799324,19.7971556 24.1110593,20.3605705 Z" id="Combined-Shape" fill="#B1B7C0" fill-rule="nonzero"></path>
                    <path d="M14.5850807,3.99135176 L6.0450786,8.55910434 C5.80157865,8.68934406 5.70976309,8.99231993 5.84000282,9.23581988 C5.88659931,9.32293802 5.95796046,9.39429917 6.0450786,9.44089566 L14.5850807,14.0086482 C15.4691061,14.481483 16.5308939,14.481483 17.4149193,14.0086482 L25.9549214,9.44089566 C26.1984214,9.31065594 26.2902369,9.00768007 26.1599972,8.76418012 C26.1134007,8.67706198 26.0420395,8.60570083 25.9549214,8.55910434 L17.4149193,3.99135176 C16.5308939,3.51851704 15.4691061,3.51851704 14.5850807,3.99135176 Z M28.5468234,10.322687 L17.1790994,16.4028905 C16.4424115,16.7969194 15.5575885,16.7969194 14.8209006,16.4028905 L3.45317656,10.322687 C2.72267671,9.93196781 2.44723005,9.0230402 2.83794922,8.29254035 C2.97773869,8.03118593 3.19182213,7.81710249 3.45317656,7.67731302 L14.8209006,1.59710951 C15.5575885,1.20308058 16.4424115,1.20308058 17.1790994,1.59710951 L28.5468234,7.67731302 C29.2773233,8.06803219 29.55277,8.9769598 29.1620508,9.70745965 C29.0222613,9.96881407 28.8081779,10.1828975 28.5468234,10.322687 Z" id="Rectangle-2" fill="#B1B7C0" fill-rule="nonzero"></path>
                    <path d="M28,9 C28,8.44771525 27.5522847,8 27,8 L17,8 C16.4477153,8 16,8.44771525 16,9 C16,9.55228475 16.4477153,10 17,10 L26,10 L26,19 C26,19.5522847 26.4477153,20 27,20 C27.5522847,20 28,19.5522847 28,19 L28,9 Z" id="Combined-Shape" fill="#B15DCB"></path>
                </g>
            </g>
        </g>
    </g>
</svg>