<?xml version="1.0" encoding="UTF-8"?>
<svg width="30px" height="25px" viewBox="0 0 30 25" version="1.1" xmlns="http://www.w3.org/2000/svg" xmlns:xlink="http://www.w3.org/1999/xlink">
    <!-- Generator: Sketch 56.3 (81716) - https://sketch.com -->
    <title>icon-mastery-orientation-2</title>
    <desc>Created with Sketch.</desc>
    <g id="Icons---Product" stroke="none" stroke-width="1" fill="none" fill-rule="evenodd">
        <g id="Capacities-&amp;-Experiences" transform="translate(-9.000000, -522.000000)">
            <g id="icon-mastery-orientation-2" transform="translate(8.000000, 518.000000)">
                <rect id="Rectangle-3" x="0" y="0" width="32" height="32"></rect>
                <g id="Group-30" transform="translate(15.000000, 4.000000)" fill="#B15DCB" fill-rule="nonzero">
                    <rect id="Rectangle-47" x="0" y="0" width="2" height="4" rx="1"></rect>
                </g>
                <g id="Group-30" transform="translate(6.514719, 9.514719) rotate(-45.000000) translate(-6.514719, -9.514719) translate(5.514719, 7.514719)" fill="#B15DCB" fill-rule="nonzero">
                    <rect id="Rectangle-47" x="0" y="0" width="2" height="4" rx="1"></rect>
                </g>
                <g id="Group-29" transform="translate(16.000000, 19.000000) rotate(-270.000000) translate(-16.000000, -19.000000) translate(15.000000, 4.000000)" fill="#B15DCB" fill-rule="nonzero">
                    <rect id="Rectangle-47" x="0" y="0" width="2" height="4" rx="1"></rect>
                    <rect id="Rectangle-47" x="0" y="26" width="2" height="4" rx="1"></rect>
                </g>
                <g id="Group-29" transform="translate(25.485281, 9.514719) rotate(-315.000000) translate(-25.485281, -9.514719) translate(24.485281, 7.514719)" fill="#B15DCB" fill-rule="nonzero">
                    <rect id="Rectangle-47" x="0" y="0" width="2" height="4" rx="1"></rect>
                </g>
                <g id="Group-4" transform="translate(6.000000, 9.000000)" fill-rule="nonzero">
                    <path d="M10,20 C15.5228475,20 20,15.5228475 20,10 C20,4.4771525 15.5228475,0 10,0 C4.4771525,0 0,4.4771525 0,10 C0,15.5228475 4.4771525,20 10,20 Z M10,18 C5.581722,18 2,14.418278 2,10 C2,5.581722 5.581722,2 10,2 C14.418278,2 18,5.581722 18,10 C18,14.418278 14.418278,18 10,18 Z" id="Oval-21" fill="#B1B7C0"></path>
                    <path d="M10,15 C12.7614237,15 15,12.7614237 15,10 C15,7.23857625 12.7614237,5 10,5 C7.23857625,5 5,7.23857625 5,10 C5,12.7614237 7.23857625,15 10,15 Z M10,13 C8.34314575,13 7,11.6568542 7,10 C7,8.34314575 8.34314575,7 10,7 C11.6568542,7 13,8.34314575 13,10 C13,11.6568542 11.6568542,13 10,13 Z" id="Oval-9" fill="#B15DCB"></path>
                </g>
            </g>
        </g>
    </g>
</svg>